<svg xmlns="http://www.w3.org/2000/svg" xmlns:xlink="http://www.w3.org/1999/xlink" width="1em" height="1em" preserveAspectRatio="xMidYMid meet" viewBox="0 0 36 36" style="-ms-transform: rotate(360deg); -webkit-transform: rotate(360deg); transform: rotate(360deg);"><path d="M28 8H14a2 2 0 0 0-2 2v2h2v-2h14v10h-2v2h2a2 2 0 0 0 2-2V10a2 2 0 0 0-2-2z" class="clr-i-outline clr-i-outline-path-1" fill="currentColor"/><path d="M22 14H8a2 2 0 0 0-2 2v10a2 2 0 0 0 2 2h14a2 2 0 0 0 2-2V16a2 2 0 0 0-2-2zM8 26V16h14v10z" class="clr-i-outline clr-i-outline-path-2" fill="currentColor"/></svg>